<svg xmlns="http://www.w3.org/2000/svg" width="122" height="118.909" viewBox="0 0 122 118.909">
  <path id="Icon_awesome-arrow-right" data-name="Icon awesome-arrow-right" d="M51.871,10.612l6.045-6.045a6.508,6.508,0,0,1,9.231,0L120.08,57.473a6.508,6.508,0,0,1,0,9.231L67.147,119.637a6.508,6.508,0,0,1-9.231,0l-6.045-6.045a6.542,6.542,0,0,1,.109-9.34L84.791,72.994H6.535A6.519,6.519,0,0,1,0,66.459V57.745A6.519,6.519,0,0,1,6.535,51.21H84.791L51.98,19.951A6.5,6.5,0,0,1,51.871,10.612Z" transform="translate(0 -2.647)"/>
</svg>
