<svg xmlns="http://www.w3.org/2000/svg" width="62" height="62" viewBox="0 0 62 62">
  <path id="Icon_awesome-instagram" data-name="Icon awesome-instagram" d="M31,17.342a15.9,15.9,0,1,0,15.892,15.9A15.869,15.869,0,0,0,31,17.342Zm0,26.231A10.334,10.334,0,1,1,41.334,33.238,10.352,10.352,0,0,1,31,43.572ZM51.251,16.691a3.707,3.707,0,1,1-3.707-3.708A3.7,3.7,0,0,1,51.251,16.691Zm10.526,3.763c-.235-4.967-1.369-9.366-5.007-12.991S48.748,2.7,43.782,2.456c-5.118-.291-20.457-.291-25.575,0-4.952.235-9.35,1.37-12.988,4.994S.462,15.474.213,20.441c-.29,5.119-.29,20.461,0,25.58.235,4.967,1.369,9.366,5.007,12.991s8.022,4.759,12.988,5.008c5.118.291,20.457.291,25.575,0,4.966-.235,9.364-1.37,12.988-5.008s4.758-8.024,5.007-12.991c.29-5.119.29-20.448,0-25.566ZM55.165,51.513a10.462,10.462,0,0,1-5.892,5.894C45.193,59.025,35.511,58.652,31,58.652s-14.205.36-18.271-1.245a10.462,10.462,0,0,1-5.892-5.894C5.22,47.432,5.593,37.748,5.593,33.238S5.233,19.03,6.838,14.962A10.462,10.462,0,0,1,12.73,9.069C16.81,7.45,26.493,7.823,31,7.823s14.205-.36,18.271,1.245a10.462,10.462,0,0,1,5.892,5.894c1.618,4.081,1.245,13.765,1.245,18.276S56.784,47.446,55.165,51.513Z" transform="translate(0.005 -2.238)"/>
</svg>
