<svg xmlns="http://www.w3.org/2000/svg" width="62" height="61.999" viewBox="0 0 62 61.999">
  <path id="Icon_awesome-linkedin-in" data-name="Icon awesome-linkedin-in" d="M13.878,62H1.024V20.606H13.878ZM7.444,14.96a7.48,7.48,0,1,1,7.444-7.515A7.507,7.507,0,0,1,7.444,14.96ZM61.986,62H49.16V41.849c0-4.8-.1-10.961-6.683-10.961-6.683,0-7.707,5.217-7.707,10.615V62H21.93V20.606H34.258v5.646h.18C36.154,23,40.346,19.568,46.6,19.568c13.009,0,15.4,8.567,15.4,19.693V62Z" transform="translate(0 -0.001)"/>
</svg>
